HIERARCHY
ROOT Hips
{
	OFFSET 0.00 0.00 0.00
	CHANNELS 6 Xposition Yposition Zposition Xrotation Yrotation Zrotation
	JOINT LeftUpLeg
	{
		OFFSET 3.10215 0.00000 0.00000
		CHANNELS 3 Xrotation Yrotation Zrotation
		JOINT LeftLeg
		{
			OFFSET 0.00000 -16.83331 0.00000
			CHANNELS 3 Xrotation Yrotation Zrotation
			JOINT LeftFoot
			{
				OFFSET 0.00000 -15.53879 0.00000
				CHANNELS 3 Xrotation Yrotation Zrotation
				JOINT LeftToeBase
				{
					OFFSET 0.00000 -1.57366 5.87297
					CHANNELS 3 Xrotation Yrotation Zrotation
					End Site
					{
						OFFSET 0.00000 0.00000 2.95275
					}
				}
			}
		}
	}
	JOINT RightUpLeg
	{
		OFFSET -3.10215 0.00000 0.00000
		CHANNELS 3 Xrotation Yrotation Zrotation
		JOINT RightLeg
		{
			OFFSET 0.00000 -16.83331 0.00000
			CHANNELS 3 Xrotation Yrotation Zrotation
			JOINT RightFoot
			{
				OFFSET 0.00000 -15.53879 0.00000
				CHANNELS 3 Xrotation Yrotation Zrotation
				JOINT RightToeBase
				{
					OFFSET 0.00000 -1.57366 5.87297
					CHANNELS 3 Xrotation Yrotation Zrotation
					End Site
					{
						OFFSET 0.00000 0.00000 2.95275
					}
				}
			}
		}
	}
	JOINT Spine
	{
		OFFSET 0.00000 0.03937 0.00000
		CHANNELS 3 Xrotation Yrotation Zrotation
		JOINT Spine1
		{
			OFFSET 0.00000 8.31046 0.00000
			CHANNELS 3 Xrotation Yrotation Zrotation
			JOINT Neck
			{
				OFFSET 0.00000 6.25463 0.00000
				CHANNELS 3 Xrotation Yrotation Zrotation
				JOINT Head
				{
					OFFSET 0.00000 8.60817 0.00000
					CHANNELS 3 Xrotation Yrotation Zrotation
					End Site
					{
						OFFSET 0.00000 4.52755 0.00000
					}
				}
			}
			JOINT LeftShoulder
			{
				OFFSET 0.00000 6.25463 0.00000
				CHANNELS 3 Xrotation Yrotation Zrotation
				JOINT LeftArm
				{
					OFFSET 7.44857 -0.00003 0.00000
					CHANNELS 3 Xrotation Yrotation Zrotation
					JOINT LeftForeArm
					{
						OFFSET 10.73545 -0.00004 0.00000
						CHANNELS 3 Xrotation Yrotation Zrotation
						JOINT LeftHand
						{
							OFFSET 10.15840 -0.00004 0.00000
							CHANNELS 3 Xrotation Yrotation Zrotation
							JOINT LeftHandThumb
							{
								OFFSET 0.00000 0.00000 0.00000
								CHANNELS 3 Xrotation Yrotation Zrotation
								End Site
								{
									OFFSET 0.00000 0.00000 3.93700
								}
							}
							JOINT L_Wrist_End
							{
								OFFSET 3.93700 -0.00001 0.00000
								CHANNELS 3 Xrotation Yrotation Zrotation
							}
						}
					}
				}
			}
			JOINT RightShoulder
			{
				OFFSET 0.00000 6.25463 0.00000
				CHANNELS 3 Xrotation Yrotation Zrotation
				JOINT RightArm
				{
					OFFSET -7.44857 -0.00003 0.00000
					CHANNELS 3 Xrotation Yrotation Zrotation
					JOINT RightForeArm
					{
						OFFSET -10.73545 -0.00004 0.00000
						CHANNELS 3 Xrotation Yrotation Zrotation
						JOINT RightHand
						{
							OFFSET -10.15840 -0.00004 0.00000
							CHANNELS 3 Xrotation Yrotation Zrotation
							JOINT RightHandThumb
							{
								OFFSET 0.00000 0.00000 0.00000
								CHANNELS 3 Xrotation Yrotation Zrotation
								End Site
								{
									OFFSET 0.00000 0.00000 3.93700
								}
							}
							JOINT R_Wrist_End
							{
								OFFSET -5.39369 -0.00002 0.00000
								CHANNELS 3 Xrotation Yrotation Zrotation
							}
						}
					}
				}
			}
		}
	}
}
MOTION
Frames: 12
Frame Time: 0.008333
 -125.1879 33.1571 -6.4175 65.0263 77.8190 -61.8545 -7.0023 5.0103 -7.4905 14.1119 0.0000 0.0000 -23.8128 13.6839 -17.9770 -2.9902 -0.0000 -0.0000 -25.6392 -5.5959 -13.5978 68.8378 -0.0000 -0.0000 -16.5278 3.4074 11.2353 2.2333 -0.0000 -0.0000 -4.0624 2.3411 0.0317 -0.3368 1.0179 -2.0237 17.5121 14.1204 3.0849 -13.9097 -4.6972 -6.5607 17.3347 -5.9309 24.2521 -17.7105 -25.4539 -98.9377 -0.0003 -50.4187 -0.0001 -9.3911 8.1685 -7.4341 -0.0000 -0.0000 -0.0000 -0.0000 -0.0000 -0.0000 17.2700 -2.0297 -18.9507 0.2393 1.9284 92.7314 -0.0001 21.2383 0.0000 -36.9061 14.5321 27.0741 -0.0000 -0.0000 -0.0000 -0.0000 -0.0000 -0.0000
 -124.9458 33.1834 -6.3747 66.0081 77.8633 -63.1031 -6.0707 4.6652 -7.2384 12.8250 0.0000 -0.0000 -23.4402 13.6880 -18.0557 -3.0604 -0.0000 0.0000 -27.0187 -4.8642 -13.0249 69.0953 -0.0000 0.0000 -16.3514 3.3390 12.0148 2.0578 0.0000 -0.0000 -4.0357 2.2604 -0.0256 -0.3773 0.9432 -1.7327 17.5173 14.1958 3.1514 -14.1254 -4.6671 -6.6286 17.3180 -6.0564 24.3420 -18.1473 -26.0442 -98.6285 -0.0003 -51.2752 -0.0001 -9.6545 7.9964 -8.2852 -0.0000 0.0000 -0.0000 -0.0000 0.0000 -0.0000 17.2519 -1.9765 -18.9398 -0.0066 2.1449 92.9618 -0.0001 21.8737 0.0000 -37.5562 14.4237 27.3724 0.0000 -0.0000 0.0000 0.0000 -0.0000 0.0000
 -124.7000 33.2024 -6.3459 67.1197 77.9369 -64.3452 -5.0662 4.2430 -7.1476 11.4461 -0.0000 0.0000 -23.0200 13.7505 -18.0243 -3.0268 -0.0000 -0.0000 -28.4349 -4.2569 -12.6732 69.1952 0.0000 -0.0000 -16.2431 2.9120 12.6751 1.9763 0.0000 -0.0000 -3.9742 2.1482 -0.0774 -0.4336 0.8346 -1.6391 17.5991 14.1599 3.2991 -14.4975 -4.4709 -6.7589 17.1456 -6.3238 24.5074 -18.2253 -26.4410 -98.3072 -0.0003 -52.2443 -0.0001 -9.7720 7.8647 -8.9716 0.0000 0.0000 0.0000 0.0000 0.0000 0.0000 17.2422 -1.8546 -18.8737 -0.1711 2.2690 93.1531 -0.0001 22.6251 0.0000 -38.2588 14.2704 27.6659 -0.0000 -0.0000 -0.0000 -0.0000 -0.0000 -0.0000
 -124.4566 33.2123 -6.2895 67.5523 77.8806 -65.1463 -4.1820 4.5676 -6.7029 10.3311 -0.0000 0.0000 -22.7186 13.2429 -18.3158 -3.2408 0.0000 0.0000 -29.9029 -3.6610 -11.9582 69.0702 -0.0000 0.0000 -16.2926 2.2326 12.6271 1.9119 0.0000 -0.0000 -3.9700 2.1151 -0.1008 -0.4331 0.8043 -1.3015 17.4678 14.2339 3.3438 -14.5285 -4.4678 -6.6957 17.2319 -6.3289 24.6410 -18.8098 -27.0569 -97.9950 -0.0003 -53.1594 -0.0001 -9.8949 7.9173 -8.8402 -0.0000 -0.0000 0.0000 -0.0000 -0.0000 0.0000 17.1255 -1.8161 -18.8832 -0.3919 2.4690 93.3650 -0.0001 23.2322 0.0000 -38.9746 14.3438 27.8363 -0.0000 0.0000 0.0000 -0.0000 0.0000 0.0000
 -124.2059 33.2133 -6.2585 68.6579 77.9356 -66.3911 -3.2238 4.6189 -6.5447 9.1647 -0.0000 0.0000 -22.3956 12.8643 -18.4355 -3.0552 0.0000 -0.0000 -31.3378 -3.2539 -11.6543 68.7471 -0.0000 0.0000 -16.5799 1.6998 12.2133 1.8333 0.0000 -0.0000 -3.9060 1.9899 -0.1439 -0.4927 0.6821 -1.1934 17.5736 14.2069 3.4828 -14.9475 -4.2845 -6.8649 17.1033 -6.5908 24.7995 -18.8685 -27.3699 -97.6007 -0.0003 -54.1138 -0.0001 -9.8967 7.6966 -9.2474 0.0000 -0.0000 -0.0000 0.0000 -0.0000 -0.0000 17.1446 -1.7115 -18.8409 -0.5700 2.5532 93.5313 -0.0001 24.0810 0.0000 -39.5139 14.2032 27.7357 -0.0000 -0.0000 0.0000 -0.0000 -0.0000 0.0000
 -123.9669 33.2055 -6.1988 69.4025 77.8037 -67.5523 -2.5042 5.0608 -6.0195 8.2017 0.0000 0.0000 -22.1963 12.2388 -18.9252 -3.2437 0.0000 -0.0000 -32.8893 -2.8847 -10.9561 68.1499 -0.0000 -0.0000 -16.9176 1.0828 11.3646 1.7841 -0.0000 -0.0000 -3.9036 1.9162 -0.1374 -0.5770 0.6093 -0.8121 17.4116 14.3048 3.5026 -14.9172 -4.3034 -6.8146 17.1840 -6.5854 24.9061 -19.3434 -27.8253 -97.2097 -0.0003 -55.0225 -0.0002 -9.9935 7.6651 -9.2696 -0.0000 0.0000 -0.0000 -0.0000 0.0000 -0.0000 17.0274 -1.6893 -18.8698 -0.7806 2.7292 93.6795 -0.0001 24.7212 0.0000 -40.1441 14.3036 27.8816 -0.0000 0.0000 0.0000 -0.0000 0.0000 0.0000
 -123.7035 33.1872 -6.1697 70.2829 77.8337 -68.5134 -1.5360 5.2989 -5.9185 7.0885 -0.0000 0.0000 -21.8845 11.7494 -19.0675 -3.2719 0.0000 0.0000 -34.2577 -2.5609 -10.7678 67.3353 -0.0000 0.0000 -17.4062 0.7163 10.5171 1.6036 0.0000 0.0000 -3.8549 1.8028 -0.1953 -0.6029 0.4987 -0.7485 17.4584 14.2912 3.6063 -15.2107 -4.1608 -6.9060 17.0692 -6.8349 25.0322 -19.3281 -28.0733 -96.7210 -0.0003 -55.9859 -0.0002 -10.0808 7.5973 -9.4150 -0.0000 -0.0000 -0.0000 -0.0000 -0.0000 -0.0000 17.0074 -1.6123 -18.8123 -0.9542 2.7902 93.7582 -0.0001 25.4745 0.0000 -40.7117 14.1359 28.1120 0.0000 -0.0000 -0.0000 0.0000 -0.0000 -0.0000
 -123.4476 33.1576 -6.1355 71.0821 77.8239 -69.4237 -0.6476 5.5206 -5.7702 6.0523 -0.0000 -0.0000 -21.6266 11.2754 -19.3898 -3.3540 -0.0000 -0.0000 -35.6224 -2.2143 -10.5160 66.3016 -0.0000 0.0000 -17.8205 0.3220 9.9446 1.7644 -0.0000 -0.0000 -3.7990 1.7090 -0.2644 -0.6210 0.4082 -0.6492 17.4192 14.2638 3.7176 -15.4172 -4.0315 -6.9385 17.0169 -7.0225 25.1774 -19.4507 -28.3221 -96.2422 -0.0003 -56.8929 -0.0002 -10.1531 7.4526 -9.3326 -0.0000 -0.0000 0.0000 -0.0000 -0.0000 0.0000 16.9639 -1.5600 -18.7572 -1.1385 2.9000 93.8095 -0.0001 26.2291 0.0000 -41.2471 14.2122 28.2824 -0.0000 0.0000 -0.0000 -0.0000 0.0000 -0.0000
 -123.1908 33.1189 -6.1002 72.2459 77.8127 -70.6867 0.1743 5.6130 -5.6278 5.0880 -0.0000 -0.0000 -21.4346 10.8607 -19.6471 -3.4459 0.0000 -0.0000 -36.9512 -1.9715 -10.3188 65.0156 -0.0000 0.0000 -18.1024 -0.0790 9.4324 1.9245 0.0000 -0.0000 -3.7395 1.5894 -0.3385 -0.6561 0.2921 -0.5375 17.3347 14.2337 3.8064 -15.5416 -3.9496 -6.9524 16.9899 -7.1834 25.3023 -19.6213 -28.5072 -95.7635 -0.0003 -57.7149 -0.0002 -10.2867 7.2810 -9.2617 0.0000 0.0000 -0.0000 0.0000 0.0000 -0.0000 16.8800 -1.5571 -18.6978 -1.2955 2.9890 93.8302 -0.0001 26.9903 0.0000 -41.5732 14.2083 28.4002 0.0000 0.0000 -0.0000 0.0000 0.0000 -0.0000
 -122.9265 33.0702 -6.0673 73.5217 77.8106 -72.0143 0.9885 5.5373 -5.5346 4.1677 0.0000 0.0000 -21.3391 10.6087 -19.8152 -3.4063 0.0000 -0.0000 -38.1876 -1.7183 -10.1971 63.5103 -0.0000 0.0000 -18.3477 -0.5550 9.1649 1.5170 -0.0000 0.0000 -3.6652 1.4502 -0.4147 -0.7096 0.1568 -0.4830 17.1672 14.1675 3.8925 -15.4648 -3.8647 -6.8989 16.9367 -7.3528 25.4170 -19.7041 -28.6241 -95.2589 -0.0003 -58.4906 -0.0002 -10.5529 7.1065 -9.2132 0.0000 -0.0000 0.0000 0.0000 -0.0000 0.0000 16.7256 -1.5583 -18.6355 -1.3742 3.0376 93.8503 -0.0001 27.7550 0.0000 -41.6378 14.1973 28.4229 -0.0000 -0.0000 -0.0000 -0.0000 -0.0000 -0.0000
 -122.6574 33.0163 -6.0345 74.9251 77.7986 -73.4559 1.7940 5.4418 -5.4476 3.2626 -0.0000 0.0000 -21.2450 10.3574 -20.0651 -3.2808 0.0000 0.0000 -39.3527 -1.5070 -10.1315 61.7708 -0.0000 0.0000 -18.5178 -0.8804 9.2304 1.9413 -0.0000 -0.0000 -3.6172 1.3121 -0.4996 -0.7534 0.0229 -0.4201 17.1204 14.1092 3.9914 -15.6167 -3.7900 -6.9271 16.8958 -7.5584 25.4826 -19.7931 -28.8220 -94.6677 -0.0004 -59.1751 -0.0002 -10.8559 6.8720 -8.9221 0.0000 0.0000 -0.0000 0.0000 0.0000 -0.0000 16.6857 -1.5637 -18.5222 -1.4980 3.0708 93.7824 -0.0001 28.5804 0.0000 -41.6992 14.2358 28.4424 -0.0000 0.0000 -0.0000 -0.0000 0.0000 -0.0000
 -122.3934 32.9564 -5.9981 77.0174 77.7200 -75.5769 2.4262 5.3704 -5.3324 2.5016 -0.0000 -0.0000 -21.2068 9.9790 -20.3787 -3.2289 -0.0000 -0.0000 -40.5412 -1.3491 -10.1373 59.8488 -0.0000 0.0000 -18.5399 -1.1909 9.2196 1.8300 -0.0000 0.0000 -3.6483 1.1455 -0.6436 -0.7542 -0.1379 -0.2113 17.0166 14.1954 3.9599 -15.7435 -3.9565 -6.8882 16.9719 -7.6682 25.3909 -20.1221 -29.4226 -93.8515 -0.0004 -59.8250 -0.0002 -11.4372 6.5335 -7.9666 -0.0000 -0.0000 0.0000 -0.0000 -0.0000 0.0000 16.6133 -1.6576 -18.4883 -1.6443 3.0605 93.7304 -0.0001 29.3738 0.0000 -41.3914 14.5011 28.2657 -0.0000 -0.0000 -0.0000 -0.0000 -0.0000 -0.0000
